<mxfile host="Electron" agent="Mozilla/5.0 (Windows NT 10.0; Win64; x64) AppleWebKit/537.36 (KHTML, like Gecko) draw.io/24.7.17 Chrome/128.0.6613.36 Electron/32.0.1 Safari/537.36" version="24.7.17">
  <diagram name="Страница — 1" id="ie5beoXYrRYSw_K0rIcP">
    <mxGraphModel dx="2176" dy="2386" grid="1" gridSize="10" guides="1" tooltips="1" connect="1" arrows="1" fold="1" page="1" pageScale="1" pageWidth="827" pageHeight="1169" math="0" shadow="0">
      <root>
        <mxCell id="0" />
        <mxCell id="1" parent="0" />
        <mxCell id="WbxU5NNTNWnyRU2nzeea-87" value="" style="edgeStyle=orthogonalEdgeStyle;rounded=0;orthogonalLoop=1;jettySize=auto;html=1;" edge="1" parent="1" source="WbxU5NNTNWnyRU2nzeea-85" target="WbxU5NNTNWnyRU2nzeea-86">
          <mxGeometry relative="1" as="geometry" />
        </mxCell>
        <mxCell id="WbxU5NNTNWnyRU2nzeea-85" value="void printList(Node* head)&amp;nbsp;" style="shape=process;whiteSpace=wrap;html=1;backgroundOutline=1;" vertex="1" parent="1">
          <mxGeometry x="30" y="30" width="200" height="50" as="geometry" />
        </mxCell>
        <mxCell id="WbxU5NNTNWnyRU2nzeea-90" style="edgeStyle=orthogonalEdgeStyle;rounded=0;orthogonalLoop=1;jettySize=auto;html=1;exitX=0;exitY=0.5;exitDx=0;exitDy=0;entryX=0.5;entryY=0;entryDx=0;entryDy=0;" edge="1" parent="1" source="WbxU5NNTNWnyRU2nzeea-86" target="WbxU5NNTNWnyRU2nzeea-89">
          <mxGeometry relative="1" as="geometry" />
        </mxCell>
        <mxCell id="WbxU5NNTNWnyRU2nzeea-96" style="edgeStyle=orthogonalEdgeStyle;rounded=0;orthogonalLoop=1;jettySize=auto;html=1;exitX=1;exitY=0.5;exitDx=0;exitDy=0;" edge="1" parent="1" source="WbxU5NNTNWnyRU2nzeea-86">
          <mxGeometry relative="1" as="geometry">
            <mxPoint x="130" y="380" as="targetPoint" />
            <Array as="points">
              <mxPoint x="220" y="145" />
              <mxPoint x="220" y="380" />
            </Array>
          </mxGeometry>
        </mxCell>
        <mxCell id="WbxU5NNTNWnyRU2nzeea-86" value="if (head == nullptr)&amp;nbsp;" style="rhombus;whiteSpace=wrap;html=1;" vertex="1" parent="1">
          <mxGeometry x="60" y="110" width="140" height="70" as="geometry" />
        </mxCell>
        <mxCell id="WbxU5NNTNWnyRU2nzeea-88" value="{" style="text;html=1;align=center;verticalAlign=middle;resizable=0;points=[];autosize=1;strokeColor=none;fillColor=none;" vertex="1" parent="1">
          <mxGeometry x="105" y="78" width="30" height="30" as="geometry" />
        </mxCell>
        <mxCell id="WbxU5NNTNWnyRU2nzeea-93" value="" style="edgeStyle=orthogonalEdgeStyle;rounded=0;orthogonalLoop=1;jettySize=auto;html=1;" edge="1" parent="1" source="WbxU5NNTNWnyRU2nzeea-89" target="WbxU5NNTNWnyRU2nzeea-92">
          <mxGeometry relative="1" as="geometry" />
        </mxCell>
        <mxCell id="WbxU5NNTNWnyRU2nzeea-89" value="cout &amp;lt;&amp;lt; &quot;Список пустой&quot; &amp;lt;&amp;lt; endl;" style="shape=parallelogram;perimeter=parallelogramPerimeter;whiteSpace=wrap;html=1;fixedSize=1;" vertex="1" parent="1">
          <mxGeometry x="-110" y="190" width="215" height="50" as="geometry" />
        </mxCell>
        <mxCell id="WbxU5NNTNWnyRU2nzeea-91" value="1 {" style="text;html=1;align=center;verticalAlign=middle;resizable=0;points=[];autosize=1;strokeColor=none;fillColor=none;" vertex="1" parent="1">
          <mxGeometry x="30" y="118" width="40" height="30" as="geometry" />
        </mxCell>
        <mxCell id="WbxU5NNTNWnyRU2nzeea-95" style="edgeStyle=orthogonalEdgeStyle;rounded=0;orthogonalLoop=1;jettySize=auto;html=1;exitX=0.5;exitY=1;exitDx=0;exitDy=0;" edge="1" parent="1" source="WbxU5NNTNWnyRU2nzeea-92">
          <mxGeometry relative="1" as="geometry">
            <mxPoint x="130" y="380" as="targetPoint" />
            <Array as="points">
              <mxPoint x="-2" y="380" />
            </Array>
          </mxGeometry>
        </mxCell>
        <mxCell id="WbxU5NNTNWnyRU2nzeea-92" value="return;" style="ellipse;whiteSpace=wrap;html=1;" vertex="1" parent="1">
          <mxGeometry x="-47.5" y="280" width="90" height="50" as="geometry" />
        </mxCell>
        <mxCell id="WbxU5NNTNWnyRU2nzeea-94" value="}" style="text;html=1;align=center;verticalAlign=middle;resizable=0;points=[];autosize=1;strokeColor=none;fillColor=none;" vertex="1" parent="1">
          <mxGeometry y="330" width="30" height="30" as="geometry" />
        </mxCell>
        <mxCell id="WbxU5NNTNWnyRU2nzeea-97" value="0" style="text;html=1;align=center;verticalAlign=middle;resizable=0;points=[];autosize=1;strokeColor=none;fillColor=none;" vertex="1" parent="1">
          <mxGeometry x="185" y="118" width="30" height="30" as="geometry" />
        </mxCell>
        <mxCell id="WbxU5NNTNWnyRU2nzeea-101" style="edgeStyle=orthogonalEdgeStyle;rounded=0;orthogonalLoop=1;jettySize=auto;html=1;exitX=0.5;exitY=1;exitDx=0;exitDy=0;entryX=0.5;entryY=0;entryDx=0;entryDy=0;" edge="1" parent="1" source="WbxU5NNTNWnyRU2nzeea-98" target="WbxU5NNTNWnyRU2nzeea-100">
          <mxGeometry relative="1" as="geometry" />
        </mxCell>
        <mxCell id="WbxU5NNTNWnyRU2nzeea-98" value="&amp;nbsp;Node* temp = head;" style="rounded=0;whiteSpace=wrap;html=1;" vertex="1" parent="1">
          <mxGeometry x="70" y="420" width="120" height="50" as="geometry" />
        </mxCell>
        <mxCell id="WbxU5NNTNWnyRU2nzeea-99" value="" style="endArrow=classic;html=1;rounded=0;entryX=0.5;entryY=0;entryDx=0;entryDy=0;" edge="1" parent="1" target="WbxU5NNTNWnyRU2nzeea-98">
          <mxGeometry width="50" height="50" relative="1" as="geometry">
            <mxPoint x="130" y="380" as="sourcePoint" />
            <mxPoint x="130" y="500" as="targetPoint" />
          </mxGeometry>
        </mxCell>
        <mxCell id="WbxU5NNTNWnyRU2nzeea-103" value="" style="edgeStyle=orthogonalEdgeStyle;rounded=0;orthogonalLoop=1;jettySize=auto;html=1;" edge="1" parent="1" source="WbxU5NNTNWnyRU2nzeea-100" target="WbxU5NNTNWnyRU2nzeea-102">
          <mxGeometry relative="1" as="geometry" />
        </mxCell>
        <mxCell id="WbxU5NNTNWnyRU2nzeea-110" style="edgeStyle=orthogonalEdgeStyle;rounded=0;orthogonalLoop=1;jettySize=auto;html=1;exitX=1;exitY=0.5;exitDx=0;exitDy=0;entryX=0.5;entryY=0;entryDx=0;entryDy=0;" edge="1" parent="1" source="WbxU5NNTNWnyRU2nzeea-100" target="WbxU5NNTNWnyRU2nzeea-108">
          <mxGeometry relative="1" as="geometry" />
        </mxCell>
        <mxCell id="WbxU5NNTNWnyRU2nzeea-100" value="while (temp != nullptr)" style="rhombus;whiteSpace=wrap;html=1;" vertex="1" parent="1">
          <mxGeometry x="62.5" y="514" width="135" height="70" as="geometry" />
        </mxCell>
        <mxCell id="WbxU5NNTNWnyRU2nzeea-106" value="" style="edgeStyle=orthogonalEdgeStyle;rounded=0;orthogonalLoop=1;jettySize=auto;html=1;" edge="1" parent="1" source="WbxU5NNTNWnyRU2nzeea-102" target="WbxU5NNTNWnyRU2nzeea-105">
          <mxGeometry relative="1" as="geometry" />
        </mxCell>
        <mxCell id="WbxU5NNTNWnyRU2nzeea-102" value="cout &amp;lt;&amp;lt; temp-&amp;gt;key &amp;lt;&amp;lt; &quot; &quot;;" style="shape=parallelogram;perimeter=parallelogramPerimeter;whiteSpace=wrap;html=1;fixedSize=1;" vertex="1" parent="1">
          <mxGeometry x="39" y="610" width="182" height="50" as="geometry" />
        </mxCell>
        <mxCell id="WbxU5NNTNWnyRU2nzeea-104" value="1 {" style="text;html=1;align=center;verticalAlign=middle;resizable=0;points=[];autosize=1;strokeColor=none;fillColor=none;" vertex="1" parent="1">
          <mxGeometry x="90" y="578" width="40" height="30" as="geometry" />
        </mxCell>
        <mxCell id="WbxU5NNTNWnyRU2nzeea-109" style="edgeStyle=orthogonalEdgeStyle;rounded=0;orthogonalLoop=1;jettySize=auto;html=1;exitX=0.5;exitY=1;exitDx=0;exitDy=0;" edge="1" parent="1" source="WbxU5NNTNWnyRU2nzeea-105">
          <mxGeometry relative="1" as="geometry">
            <mxPoint x="129.76470588235293" y="490" as="targetPoint" />
            <Array as="points">
              <mxPoint x="130" y="760" />
              <mxPoint x="20" y="760" />
              <mxPoint x="20" y="490" />
            </Array>
          </mxGeometry>
        </mxCell>
        <mxCell id="WbxU5NNTNWnyRU2nzeea-105" value="temp = temp-&amp;gt;next;" style="rounded=0;whiteSpace=wrap;html=1;" vertex="1" parent="1">
          <mxGeometry x="70" y="690" width="120" height="50" as="geometry" />
        </mxCell>
        <mxCell id="WbxU5NNTNWnyRU2nzeea-107" value="}" style="text;html=1;align=center;verticalAlign=middle;resizable=0;points=[];autosize=1;strokeColor=none;fillColor=none;" vertex="1" parent="1">
          <mxGeometry x="135" y="738" width="30" height="30" as="geometry" />
        </mxCell>
        <mxCell id="WbxU5NNTNWnyRU2nzeea-108" value="cout &amp;lt;&amp;lt; endl;" style="shape=parallelogram;perimeter=parallelogramPerimeter;whiteSpace=wrap;html=1;fixedSize=1;" vertex="1" parent="1">
          <mxGeometry x="280" y="578" width="120" height="52" as="geometry" />
        </mxCell>
        <mxCell id="WbxU5NNTNWnyRU2nzeea-111" value="0" style="text;html=1;align=center;verticalAlign=middle;resizable=0;points=[];autosize=1;strokeColor=none;fillColor=none;" vertex="1" parent="1">
          <mxGeometry x="185" y="518" width="30" height="30" as="geometry" />
        </mxCell>
        <mxCell id="WbxU5NNTNWnyRU2nzeea-112" value="}" style="text;html=1;align=center;verticalAlign=middle;resizable=0;points=[];autosize=1;strokeColor=none;fillColor=none;" vertex="1" parent="1">
          <mxGeometry x="335" y="628" width="30" height="30" as="geometry" />
        </mxCell>
        <mxCell id="WbxU5NNTNWnyRU2nzeea-115" value="" style="edgeStyle=orthogonalEdgeStyle;rounded=0;orthogonalLoop=1;jettySize=auto;html=1;" edge="1" parent="1" source="WbxU5NNTNWnyRU2nzeea-113" target="WbxU5NNTNWnyRU2nzeea-114">
          <mxGeometry relative="1" as="geometry" />
        </mxCell>
        <mxCell id="WbxU5NNTNWnyRU2nzeea-113" value="void writeListToFile(Node* head, const string&amp;amp; filename)&amp;nbsp;" style="shape=process;whiteSpace=wrap;html=1;backgroundOutline=1;" vertex="1" parent="1">
          <mxGeometry x="17.5" y="810" width="225" height="60" as="geometry" />
        </mxCell>
        <mxCell id="WbxU5NNTNWnyRU2nzeea-118" value="" style="edgeStyle=orthogonalEdgeStyle;rounded=0;orthogonalLoop=1;jettySize=auto;html=1;" edge="1" parent="1" source="WbxU5NNTNWnyRU2nzeea-114" target="WbxU5NNTNWnyRU2nzeea-117">
          <mxGeometry relative="1" as="geometry" />
        </mxCell>
        <mxCell id="WbxU5NNTNWnyRU2nzeea-114" value="ofstream outFile(filename);" style="rounded=0;whiteSpace=wrap;html=1;" vertex="1" parent="1">
          <mxGeometry x="45" y="900" width="170" height="50" as="geometry" />
        </mxCell>
        <mxCell id="WbxU5NNTNWnyRU2nzeea-116" value="{" style="text;html=1;align=center;verticalAlign=middle;resizable=0;points=[];autosize=1;strokeColor=none;fillColor=none;" vertex="1" parent="1">
          <mxGeometry x="95" y="868" width="30" height="30" as="geometry" />
        </mxCell>
        <mxCell id="WbxU5NNTNWnyRU2nzeea-120" value="" style="edgeStyle=orthogonalEdgeStyle;rounded=0;orthogonalLoop=1;jettySize=auto;html=1;" edge="1" parent="1" source="WbxU5NNTNWnyRU2nzeea-117" target="WbxU5NNTNWnyRU2nzeea-119">
          <mxGeometry relative="1" as="geometry" />
        </mxCell>
        <mxCell id="WbxU5NNTNWnyRU2nzeea-117" value="Node* temp = head;" style="rounded=0;whiteSpace=wrap;html=1;" vertex="1" parent="1">
          <mxGeometry x="72.5" y="980" width="115" height="50" as="geometry" />
        </mxCell>
        <mxCell id="WbxU5NNTNWnyRU2nzeea-122" value="" style="edgeStyle=orthogonalEdgeStyle;rounded=0;orthogonalLoop=1;jettySize=auto;html=1;" edge="1" parent="1" source="WbxU5NNTNWnyRU2nzeea-119" target="WbxU5NNTNWnyRU2nzeea-121">
          <mxGeometry relative="1" as="geometry" />
        </mxCell>
        <mxCell id="WbxU5NNTNWnyRU2nzeea-129" style="edgeStyle=orthogonalEdgeStyle;rounded=0;orthogonalLoop=1;jettySize=auto;html=1;exitX=1;exitY=0.5;exitDx=0;exitDy=0;entryX=0.5;entryY=0;entryDx=0;entryDy=0;" edge="1" parent="1" source="WbxU5NNTNWnyRU2nzeea-119" target="WbxU5NNTNWnyRU2nzeea-128">
          <mxGeometry relative="1" as="geometry" />
        </mxCell>
        <mxCell id="WbxU5NNTNWnyRU2nzeea-119" value="while (temp != nullptr)" style="rhombus;whiteSpace=wrap;html=1;" vertex="1" parent="1">
          <mxGeometry x="60" y="1060" width="140" height="71" as="geometry" />
        </mxCell>
        <mxCell id="WbxU5NNTNWnyRU2nzeea-125" value="" style="edgeStyle=orthogonalEdgeStyle;rounded=0;orthogonalLoop=1;jettySize=auto;html=1;" edge="1" parent="1" source="WbxU5NNTNWnyRU2nzeea-121" target="WbxU5NNTNWnyRU2nzeea-124">
          <mxGeometry relative="1" as="geometry" />
        </mxCell>
        <mxCell id="WbxU5NNTNWnyRU2nzeea-121" value="outFile &amp;lt;&amp;lt; temp-&amp;gt;key &amp;lt;&amp;lt; endl;" style="rounded=0;whiteSpace=wrap;html=1;" vertex="1" parent="1">
          <mxGeometry x="42.5" y="1160" width="175" height="51" as="geometry" />
        </mxCell>
        <mxCell id="WbxU5NNTNWnyRU2nzeea-123" value="1 {" style="text;html=1;align=center;verticalAlign=middle;resizable=0;points=[];autosize=1;strokeColor=none;fillColor=none;" vertex="1" parent="1">
          <mxGeometry x="97" y="1128" width="40" height="30" as="geometry" />
        </mxCell>
        <mxCell id="WbxU5NNTNWnyRU2nzeea-127" style="edgeStyle=orthogonalEdgeStyle;rounded=0;orthogonalLoop=1;jettySize=auto;html=1;exitX=0.5;exitY=1;exitDx=0;exitDy=0;" edge="1" parent="1" source="WbxU5NNTNWnyRU2nzeea-124">
          <mxGeometry relative="1" as="geometry">
            <mxPoint x="129.76470588235293" y="1040" as="targetPoint" />
            <Array as="points">
              <mxPoint x="130" y="1310" />
              <mxPoint x="30" y="1310" />
              <mxPoint x="30" y="1040" />
            </Array>
          </mxGeometry>
        </mxCell>
        <mxCell id="WbxU5NNTNWnyRU2nzeea-124" value="temp = temp-&amp;gt;next;" style="rounded=0;whiteSpace=wrap;html=1;" vertex="1" parent="1">
          <mxGeometry x="70" y="1240" width="120" height="50" as="geometry" />
        </mxCell>
        <mxCell id="WbxU5NNTNWnyRU2nzeea-126" value="}" style="text;html=1;align=center;verticalAlign=middle;resizable=0;points=[];autosize=1;strokeColor=none;fillColor=none;" vertex="1" parent="1">
          <mxGeometry x="135" y="1290" width="30" height="30" as="geometry" />
        </mxCell>
        <mxCell id="WbxU5NNTNWnyRU2nzeea-132" value="" style="edgeStyle=orthogonalEdgeStyle;rounded=0;orthogonalLoop=1;jettySize=auto;html=1;" edge="1" parent="1" source="WbxU5NNTNWnyRU2nzeea-128" target="WbxU5NNTNWnyRU2nzeea-131">
          <mxGeometry relative="1" as="geometry" />
        </mxCell>
        <mxCell id="WbxU5NNTNWnyRU2nzeea-128" value="outFile.close();" style="rounded=0;whiteSpace=wrap;html=1;" vertex="1" parent="1">
          <mxGeometry x="350" y="1164.5" width="110" height="42" as="geometry" />
        </mxCell>
        <mxCell id="WbxU5NNTNWnyRU2nzeea-130" value="0" style="text;html=1;align=center;verticalAlign=middle;resizable=0;points=[];autosize=1;strokeColor=none;fillColor=none;" vertex="1" parent="1">
          <mxGeometry x="185" y="1068" width="30" height="30" as="geometry" />
        </mxCell>
        <mxCell id="WbxU5NNTNWnyRU2nzeea-131" value="cout &amp;lt;&amp;lt; &quot;Список записан в файл &quot; &amp;lt;&amp;lt; filename &amp;lt;&amp;lt; endl;" style="shape=parallelogram;perimeter=parallelogramPerimeter;whiteSpace=wrap;html=1;fixedSize=1;" vertex="1" parent="1">
          <mxGeometry x="240" y="1240" width="330" height="45" as="geometry" />
        </mxCell>
        <mxCell id="WbxU5NNTNWnyRU2nzeea-133" value="}" style="text;html=1;align=center;verticalAlign=middle;resizable=0;points=[];autosize=1;strokeColor=none;fillColor=none;" vertex="1" parent="1">
          <mxGeometry x="415" y="1288" width="30" height="30" as="geometry" />
        </mxCell>
        <mxCell id="WbxU5NNTNWnyRU2nzeea-136" value="" style="edgeStyle=orthogonalEdgeStyle;rounded=0;orthogonalLoop=1;jettySize=auto;html=1;" edge="1" parent="1" source="WbxU5NNTNWnyRU2nzeea-134" target="WbxU5NNTNWnyRU2nzeea-135">
          <mxGeometry relative="1" as="geometry" />
        </mxCell>
        <mxCell id="WbxU5NNTNWnyRU2nzeea-134" value="void destroyList(Node*&amp;amp; head)" style="shape=process;whiteSpace=wrap;html=1;backgroundOutline=1;" vertex="1" parent="1">
          <mxGeometry x="570" y="40" width="210" height="50" as="geometry" />
        </mxCell>
        <mxCell id="WbxU5NNTNWnyRU2nzeea-139" value="" style="edgeStyle=orthogonalEdgeStyle;rounded=0;orthogonalLoop=1;jettySize=auto;html=1;" edge="1" parent="1" source="WbxU5NNTNWnyRU2nzeea-135" target="WbxU5NNTNWnyRU2nzeea-138">
          <mxGeometry relative="1" as="geometry" />
        </mxCell>
        <mxCell id="WbxU5NNTNWnyRU2nzeea-148" style="edgeStyle=orthogonalEdgeStyle;rounded=0;orthogonalLoop=1;jettySize=auto;html=1;exitX=1;exitY=0.5;exitDx=0;exitDy=0;entryX=0.5;entryY=0;entryDx=0;entryDy=0;" edge="1" parent="1" source="WbxU5NNTNWnyRU2nzeea-135" target="WbxU5NNTNWnyRU2nzeea-147">
          <mxGeometry relative="1" as="geometry" />
        </mxCell>
        <mxCell id="WbxU5NNTNWnyRU2nzeea-135" value="while (head != nullptr)" style="rhombus;whiteSpace=wrap;html=1;" vertex="1" parent="1">
          <mxGeometry x="605" y="148" width="140" height="70" as="geometry" />
        </mxCell>
        <mxCell id="WbxU5NNTNWnyRU2nzeea-137" value="{" style="text;html=1;align=center;verticalAlign=middle;resizable=0;points=[];autosize=1;strokeColor=none;fillColor=none;" vertex="1" parent="1">
          <mxGeometry x="645" y="90" width="30" height="30" as="geometry" />
        </mxCell>
        <mxCell id="WbxU5NNTNWnyRU2nzeea-141" value="" style="edgeStyle=orthogonalEdgeStyle;rounded=0;orthogonalLoop=1;jettySize=auto;html=1;" edge="1" parent="1" source="WbxU5NNTNWnyRU2nzeea-138" target="WbxU5NNTNWnyRU2nzeea-140">
          <mxGeometry relative="1" as="geometry" />
        </mxCell>
        <mxCell id="WbxU5NNTNWnyRU2nzeea-138" value="Node* temp = head;" style="rounded=0;whiteSpace=wrap;html=1;" vertex="1" parent="1">
          <mxGeometry x="615" y="250" width="120" height="45" as="geometry" />
        </mxCell>
        <mxCell id="WbxU5NNTNWnyRU2nzeea-144" value="" style="edgeStyle=orthogonalEdgeStyle;rounded=0;orthogonalLoop=1;jettySize=auto;html=1;" edge="1" parent="1" source="WbxU5NNTNWnyRU2nzeea-140" target="WbxU5NNTNWnyRU2nzeea-143">
          <mxGeometry relative="1" as="geometry" />
        </mxCell>
        <mxCell id="WbxU5NNTNWnyRU2nzeea-140" value="head = head-&amp;gt;next;" style="rounded=0;whiteSpace=wrap;html=1;" vertex="1" parent="1">
          <mxGeometry x="617.5" y="330" width="115" height="50" as="geometry" />
        </mxCell>
        <mxCell id="WbxU5NNTNWnyRU2nzeea-142" value="1 {" style="text;html=1;align=center;verticalAlign=middle;resizable=0;points=[];autosize=1;strokeColor=none;fillColor=none;" vertex="1" parent="1">
          <mxGeometry x="640" y="218" width="40" height="30" as="geometry" />
        </mxCell>
        <mxCell id="WbxU5NNTNWnyRU2nzeea-145" style="edgeStyle=orthogonalEdgeStyle;rounded=0;orthogonalLoop=1;jettySize=auto;html=1;exitX=0.5;exitY=1;exitDx=0;exitDy=0;" edge="1" parent="1" source="WbxU5NNTNWnyRU2nzeea-143">
          <mxGeometry relative="1" as="geometry">
            <mxPoint x="670" y="126" as="targetPoint" />
            <Array as="points">
              <mxPoint x="675" y="480" />
              <mxPoint x="590" y="480" />
              <mxPoint x="590" y="126" />
            </Array>
          </mxGeometry>
        </mxCell>
        <mxCell id="WbxU5NNTNWnyRU2nzeea-143" value="delete temp;" style="rounded=0;whiteSpace=wrap;html=1;" vertex="1" parent="1">
          <mxGeometry x="625" y="410" width="100" height="50" as="geometry" />
        </mxCell>
        <mxCell id="WbxU5NNTNWnyRU2nzeea-146" value="}" style="text;html=1;align=center;verticalAlign=middle;resizable=0;points=[];autosize=1;strokeColor=none;fillColor=none;" vertex="1" parent="1">
          <mxGeometry x="675" y="458" width="30" height="30" as="geometry" />
        </mxCell>
        <mxCell id="WbxU5NNTNWnyRU2nzeea-147" value="cout &amp;lt;&amp;lt; &quot;Список уничтожен&quot; &amp;lt;&amp;lt; endl;" style="shape=parallelogram;perimeter=parallelogramPerimeter;whiteSpace=wrap;html=1;fixedSize=1;" vertex="1" parent="1">
          <mxGeometry x="760" y="234" width="250" height="46" as="geometry" />
        </mxCell>
        <mxCell id="WbxU5NNTNWnyRU2nzeea-149" value="}" style="text;html=1;align=center;verticalAlign=middle;resizable=0;points=[];autosize=1;strokeColor=none;fillColor=none;" vertex="1" parent="1">
          <mxGeometry x="875" y="278" width="30" height="30" as="geometry" />
        </mxCell>
        <mxCell id="WbxU5NNTNWnyRU2nzeea-152" value="" style="edgeStyle=orthogonalEdgeStyle;rounded=0;orthogonalLoop=1;jettySize=auto;html=1;" edge="1" parent="1" source="WbxU5NNTNWnyRU2nzeea-150" target="WbxU5NNTNWnyRU2nzeea-151">
          <mxGeometry relative="1" as="geometry" />
        </mxCell>
        <mxCell id="WbxU5NNTNWnyRU2nzeea-150" value="&lt;div&gt;Node* restoreListFromFile(const string&amp;amp; filename)&amp;nbsp;&lt;/div&gt;" style="shape=process;whiteSpace=wrap;html=1;backgroundOutline=1;" vertex="1" parent="1">
          <mxGeometry x="560" y="529" width="240" height="55" as="geometry" />
        </mxCell>
        <mxCell id="WbxU5NNTNWnyRU2nzeea-155" value="" style="edgeStyle=orthogonalEdgeStyle;rounded=0;orthogonalLoop=1;jettySize=auto;html=1;" edge="1" parent="1" source="WbxU5NNTNWnyRU2nzeea-151" target="WbxU5NNTNWnyRU2nzeea-154">
          <mxGeometry relative="1" as="geometry" />
        </mxCell>
        <mxCell id="WbxU5NNTNWnyRU2nzeea-151" value="ifstream inFile(filename);" style="rounded=0;whiteSpace=wrap;html=1;" vertex="1" parent="1">
          <mxGeometry x="592.5" y="618" width="175" height="40" as="geometry" />
        </mxCell>
        <mxCell id="WbxU5NNTNWnyRU2nzeea-153" value="{" style="text;html=1;align=center;verticalAlign=middle;resizable=0;points=[];autosize=1;strokeColor=none;fillColor=none;" vertex="1" parent="1">
          <mxGeometry x="642" y="583" width="30" height="30" as="geometry" />
        </mxCell>
        <mxCell id="WbxU5NNTNWnyRU2nzeea-157" style="edgeStyle=orthogonalEdgeStyle;rounded=0;orthogonalLoop=1;jettySize=auto;html=1;exitX=0;exitY=0.5;exitDx=0;exitDy=0;entryX=0.5;entryY=0;entryDx=0;entryDy=0;" edge="1" parent="1" source="WbxU5NNTNWnyRU2nzeea-154" target="WbxU5NNTNWnyRU2nzeea-156">
          <mxGeometry relative="1" as="geometry" />
        </mxCell>
        <mxCell id="WbxU5NNTNWnyRU2nzeea-163" style="edgeStyle=orthogonalEdgeStyle;rounded=0;orthogonalLoop=1;jettySize=auto;html=1;exitX=1;exitY=0.5;exitDx=0;exitDy=0;" edge="1" parent="1" source="WbxU5NNTNWnyRU2nzeea-154">
          <mxGeometry relative="1" as="geometry">
            <mxPoint x="680" y="930" as="targetPoint" />
            <Array as="points">
              <mxPoint x="750" y="724" />
              <mxPoint x="750" y="930" />
            </Array>
          </mxGeometry>
        </mxCell>
        <mxCell id="WbxU5NNTNWnyRU2nzeea-154" value="if (!inFile)" style="rhombus;whiteSpace=wrap;html=1;" vertex="1" parent="1">
          <mxGeometry x="640" y="690" width="80" height="67" as="geometry" />
        </mxCell>
        <mxCell id="WbxU5NNTNWnyRU2nzeea-160" style="edgeStyle=orthogonalEdgeStyle;rounded=0;orthogonalLoop=1;jettySize=auto;html=1;exitX=0.5;exitY=1;exitDx=0;exitDy=0;entryX=0.5;entryY=0;entryDx=0;entryDy=0;" edge="1" parent="1" source="WbxU5NNTNWnyRU2nzeea-156" target="WbxU5NNTNWnyRU2nzeea-159">
          <mxGeometry relative="1" as="geometry" />
        </mxCell>
        <mxCell id="WbxU5NNTNWnyRU2nzeea-156" value="cerr &amp;lt;&amp;lt; &quot;Ошибка открытия файла для чтения!&quot; &amp;lt;&amp;lt; endl;" style="shape=parallelogram;perimeter=parallelogramPerimeter;whiteSpace=wrap;html=1;fixedSize=1;" vertex="1" parent="1">
          <mxGeometry x="415" y="768" width="330" height="40" as="geometry" />
        </mxCell>
        <mxCell id="WbxU5NNTNWnyRU2nzeea-158" value="1 {" style="text;html=1;align=center;verticalAlign=middle;resizable=0;points=[];autosize=1;strokeColor=none;fillColor=none;" vertex="1" parent="1">
          <mxGeometry x="610" y="698" width="40" height="30" as="geometry" />
        </mxCell>
        <mxCell id="WbxU5NNTNWnyRU2nzeea-162" style="edgeStyle=orthogonalEdgeStyle;rounded=0;orthogonalLoop=1;jettySize=auto;html=1;exitX=0.5;exitY=1;exitDx=0;exitDy=0;" edge="1" parent="1" source="WbxU5NNTNWnyRU2nzeea-159">
          <mxGeometry relative="1" as="geometry">
            <mxPoint x="680" y="930" as="targetPoint" />
            <Array as="points">
              <mxPoint x="580" y="930" />
            </Array>
          </mxGeometry>
        </mxCell>
        <mxCell id="WbxU5NNTNWnyRU2nzeea-159" value="return nullptr;" style="ellipse;whiteSpace=wrap;html=1;" vertex="1" parent="1">
          <mxGeometry x="530" y="830" width="100" height="57" as="geometry" />
        </mxCell>
        <mxCell id="WbxU5NNTNWnyRU2nzeea-161" value="}" style="text;html=1;align=center;verticalAlign=middle;resizable=0;points=[];autosize=1;strokeColor=none;fillColor=none;" vertex="1" parent="1">
          <mxGeometry x="1150" y="1700" width="30" height="30" as="geometry" />
        </mxCell>
        <mxCell id="WbxU5NNTNWnyRU2nzeea-168" style="edgeStyle=orthogonalEdgeStyle;rounded=0;orthogonalLoop=1;jettySize=auto;html=1;exitX=0.5;exitY=1;exitDx=0;exitDy=0;entryX=0.5;entryY=0;entryDx=0;entryDy=0;" edge="1" parent="1" source="WbxU5NNTNWnyRU2nzeea-164" target="WbxU5NNTNWnyRU2nzeea-167">
          <mxGeometry relative="1" as="geometry" />
        </mxCell>
        <mxCell id="WbxU5NNTNWnyRU2nzeea-164" value="Node* head = nullptr;" style="rounded=0;whiteSpace=wrap;html=1;" vertex="1" parent="1">
          <mxGeometry x="616.5" y="970" width="125" height="50" as="geometry" />
        </mxCell>
        <mxCell id="WbxU5NNTNWnyRU2nzeea-166" value="" style="endArrow=classic;html=1;rounded=0;entryX=0.5;entryY=0;entryDx=0;entryDy=0;" edge="1" parent="1" target="WbxU5NNTNWnyRU2nzeea-164">
          <mxGeometry width="50" height="50" relative="1" as="geometry">
            <mxPoint x="680" y="930" as="sourcePoint" />
            <mxPoint x="667.5" y="1040" as="targetPoint" />
          </mxGeometry>
        </mxCell>
        <mxCell id="WbxU5NNTNWnyRU2nzeea-170" value="" style="edgeStyle=orthogonalEdgeStyle;rounded=0;orthogonalLoop=1;jettySize=auto;html=1;" edge="1" parent="1" source="WbxU5NNTNWnyRU2nzeea-167" target="WbxU5NNTNWnyRU2nzeea-169">
          <mxGeometry relative="1" as="geometry" />
        </mxCell>
        <mxCell id="WbxU5NNTNWnyRU2nzeea-167" value="string key;" style="rounded=0;whiteSpace=wrap;html=1;" vertex="1" parent="1">
          <mxGeometry x="634" y="1040" width="90" height="49" as="geometry" />
        </mxCell>
        <mxCell id="WbxU5NNTNWnyRU2nzeea-172" value="" style="edgeStyle=orthogonalEdgeStyle;rounded=0;orthogonalLoop=1;jettySize=auto;html=1;" edge="1" parent="1" source="WbxU5NNTNWnyRU2nzeea-169" target="WbxU5NNTNWnyRU2nzeea-171">
          <mxGeometry relative="1" as="geometry" />
        </mxCell>
        <mxCell id="WbxU5NNTNWnyRU2nzeea-169" value="string* keys = new string[1000];" style="rounded=0;whiteSpace=wrap;html=1;" vertex="1" parent="1">
          <mxGeometry x="581.5" y="1117" width="195" height="52" as="geometry" />
        </mxCell>
        <mxCell id="WbxU5NNTNWnyRU2nzeea-174" value="" style="edgeStyle=orthogonalEdgeStyle;rounded=0;orthogonalLoop=1;jettySize=auto;html=1;" edge="1" parent="1" source="WbxU5NNTNWnyRU2nzeea-171" target="WbxU5NNTNWnyRU2nzeea-173">
          <mxGeometry relative="1" as="geometry" />
        </mxCell>
        <mxCell id="WbxU5NNTNWnyRU2nzeea-171" value="int count = 0;" style="rounded=0;whiteSpace=wrap;html=1;" vertex="1" parent="1">
          <mxGeometry x="619" y="1197" width="120" height="43" as="geometry" />
        </mxCell>
        <mxCell id="WbxU5NNTNWnyRU2nzeea-176" value="" style="edgeStyle=orthogonalEdgeStyle;rounded=0;orthogonalLoop=1;jettySize=auto;html=1;" edge="1" parent="1" source="WbxU5NNTNWnyRU2nzeea-173" target="WbxU5NNTNWnyRU2nzeea-175">
          <mxGeometry relative="1" as="geometry" />
        </mxCell>
        <mxCell id="WbxU5NNTNWnyRU2nzeea-183" style="edgeStyle=orthogonalEdgeStyle;rounded=0;orthogonalLoop=1;jettySize=auto;html=1;exitX=1;exitY=0.5;exitDx=0;exitDy=0;entryX=0.5;entryY=0;entryDx=0;entryDy=0;" edge="1" parent="1" source="WbxU5NNTNWnyRU2nzeea-173" target="WbxU5NNTNWnyRU2nzeea-182">
          <mxGeometry relative="1" as="geometry" />
        </mxCell>
        <mxCell id="WbxU5NNTNWnyRU2nzeea-173" value="while (getline(inFile, key))" style="rhombus;whiteSpace=wrap;html=1;" vertex="1" parent="1">
          <mxGeometry x="600.5" y="1270.5" width="157" height="65" as="geometry" />
        </mxCell>
        <mxCell id="WbxU5NNTNWnyRU2nzeea-178" style="edgeStyle=orthogonalEdgeStyle;rounded=0;orthogonalLoop=1;jettySize=auto;html=1;exitX=0.5;exitY=1;exitDx=0;exitDy=0;entryX=0.5;entryY=0;entryDx=0;entryDy=0;" edge="1" parent="1" source="WbxU5NNTNWnyRU2nzeea-175" target="WbxU5NNTNWnyRU2nzeea-177">
          <mxGeometry relative="1" as="geometry" />
        </mxCell>
        <mxCell id="WbxU5NNTNWnyRU2nzeea-175" value="keys[count] = key;" style="rounded=0;whiteSpace=wrap;html=1;" vertex="1" parent="1">
          <mxGeometry x="623.5" y="1370" width="113" height="50" as="geometry" />
        </mxCell>
        <mxCell id="WbxU5NNTNWnyRU2nzeea-179" style="edgeStyle=orthogonalEdgeStyle;rounded=0;orthogonalLoop=1;jettySize=auto;html=1;exitX=0.5;exitY=1;exitDx=0;exitDy=0;" edge="1" parent="1" source="WbxU5NNTNWnyRU2nzeea-177">
          <mxGeometry relative="1" as="geometry">
            <mxPoint x="680.3529411764707" y="1250" as="targetPoint" />
            <Array as="points">
              <mxPoint x="680" y="1510" />
              <mxPoint x="590" y="1510" />
              <mxPoint x="590" y="1250" />
            </Array>
          </mxGeometry>
        </mxCell>
        <mxCell id="WbxU5NNTNWnyRU2nzeea-177" value="count++;" style="rounded=0;whiteSpace=wrap;html=1;" vertex="1" parent="1">
          <mxGeometry x="634" y="1450" width="92" height="40" as="geometry" />
        </mxCell>
        <mxCell id="WbxU5NNTNWnyRU2nzeea-180" value="1 {" style="text;html=1;align=center;verticalAlign=middle;resizable=0;points=[];autosize=1;strokeColor=none;fillColor=none;" vertex="1" parent="1">
          <mxGeometry x="640" y="1328" width="40" height="30" as="geometry" />
        </mxCell>
        <mxCell id="WbxU5NNTNWnyRU2nzeea-181" value="}" style="text;html=1;align=center;verticalAlign=middle;resizable=0;points=[];autosize=1;strokeColor=none;fillColor=none;" vertex="1" parent="1">
          <mxGeometry x="675" y="1498" width="30" height="30" as="geometry" />
        </mxCell>
        <mxCell id="WbxU5NNTNWnyRU2nzeea-187" value="" style="edgeStyle=orthogonalEdgeStyle;rounded=0;orthogonalLoop=1;jettySize=auto;html=1;" edge="1" parent="1" source="WbxU5NNTNWnyRU2nzeea-182" target="WbxU5NNTNWnyRU2nzeea-186">
          <mxGeometry relative="1" as="geometry" />
        </mxCell>
        <mxCell id="WbxU5NNTNWnyRU2nzeea-182" value="inFile.close();" style="rounded=0;whiteSpace=wrap;html=1;" vertex="1" parent="1">
          <mxGeometry x="820" y="1335.5" width="105" height="40" as="geometry" />
        </mxCell>
        <mxCell id="WbxU5NNTNWnyRU2nzeea-185" value="0" style="text;html=1;align=center;verticalAlign=middle;resizable=0;points=[];autosize=1;strokeColor=none;fillColor=none;" vertex="1" parent="1">
          <mxGeometry x="745" y="1277" width="30" height="30" as="geometry" />
        </mxCell>
        <mxCell id="WbxU5NNTNWnyRU2nzeea-189" value="" style="edgeStyle=orthogonalEdgeStyle;rounded=0;orthogonalLoop=1;jettySize=auto;html=1;" edge="1" parent="1" source="WbxU5NNTNWnyRU2nzeea-186" target="WbxU5NNTNWnyRU2nzeea-188">
          <mxGeometry relative="1" as="geometry" />
        </mxCell>
        <mxCell id="WbxU5NNTNWnyRU2nzeea-198" style="edgeStyle=orthogonalEdgeStyle;rounded=0;orthogonalLoop=1;jettySize=auto;html=1;exitX=1;exitY=0.5;exitDx=0;exitDy=0;entryX=0.5;entryY=0;entryDx=0;entryDy=0;" edge="1" parent="1" source="WbxU5NNTNWnyRU2nzeea-186" target="WbxU5NNTNWnyRU2nzeea-196">
          <mxGeometry relative="1" as="geometry" />
        </mxCell>
        <mxCell id="WbxU5NNTNWnyRU2nzeea-186" value="for (int i = count - 1; i &amp;gt;= 0; i--)" style="shape=hexagon;perimeter=hexagonPerimeter2;whiteSpace=wrap;html=1;fixedSize=1;" vertex="1" parent="1">
          <mxGeometry x="780" y="1410" width="185" height="50" as="geometry" />
        </mxCell>
        <mxCell id="WbxU5NNTNWnyRU2nzeea-190" style="edgeStyle=orthogonalEdgeStyle;rounded=0;orthogonalLoop=1;jettySize=auto;html=1;exitX=0.5;exitY=1;exitDx=0;exitDy=0;entryX=0;entryY=0.5;entryDx=0;entryDy=0;" edge="1" parent="1" source="WbxU5NNTNWnyRU2nzeea-188" target="WbxU5NNTNWnyRU2nzeea-186">
          <mxGeometry relative="1" as="geometry" />
        </mxCell>
        <mxCell id="WbxU5NNTNWnyRU2nzeea-188" value="addElement(head, keys[i]);" style="rounded=0;whiteSpace=wrap;html=1;" vertex="1" parent="1">
          <mxGeometry x="797.5" y="1488" width="150" height="50" as="geometry" />
        </mxCell>
        <mxCell id="WbxU5NNTNWnyRU2nzeea-191" value="1 {" style="text;html=1;align=center;verticalAlign=middle;resizable=0;points=[];autosize=1;strokeColor=none;fillColor=none;" vertex="1" parent="1">
          <mxGeometry x="840" y="1458" width="40" height="30" as="geometry" />
        </mxCell>
        <mxCell id="WbxU5NNTNWnyRU2nzeea-195" value="}" style="text;html=1;align=center;verticalAlign=middle;resizable=0;points=[];autosize=1;strokeColor=none;fillColor=none;" vertex="1" parent="1">
          <mxGeometry x="874" y="1539" width="30" height="30" as="geometry" />
        </mxCell>
        <mxCell id="WbxU5NNTNWnyRU2nzeea-200" value="" style="edgeStyle=orthogonalEdgeStyle;rounded=0;orthogonalLoop=1;jettySize=auto;html=1;" edge="1" parent="1" source="WbxU5NNTNWnyRU2nzeea-196" target="WbxU5NNTNWnyRU2nzeea-199">
          <mxGeometry relative="1" as="geometry" />
        </mxCell>
        <mxCell id="WbxU5NNTNWnyRU2nzeea-196" value="delete[] keys;" style="rounded=0;whiteSpace=wrap;html=1;" vertex="1" parent="1">
          <mxGeometry x="1080" y="1470" width="110" height="40" as="geometry" />
        </mxCell>
        <mxCell id="WbxU5NNTNWnyRU2nzeea-202" value="" style="edgeStyle=orthogonalEdgeStyle;rounded=0;orthogonalLoop=1;jettySize=auto;html=1;" edge="1" parent="1" source="WbxU5NNTNWnyRU2nzeea-199" target="WbxU5NNTNWnyRU2nzeea-201">
          <mxGeometry relative="1" as="geometry" />
        </mxCell>
        <mxCell id="WbxU5NNTNWnyRU2nzeea-199" value="cout &amp;lt;&amp;lt; &quot;Список восстановлен из файла &quot; &amp;lt;&amp;lt; filename &amp;lt;&amp;lt; endl;" style="shape=parallelogram;perimeter=parallelogramPerimeter;whiteSpace=wrap;html=1;fixedSize=1;" vertex="1" parent="1">
          <mxGeometry x="947.5" y="1550" width="375" height="40" as="geometry" />
        </mxCell>
        <mxCell id="WbxU5NNTNWnyRU2nzeea-201" value="return head;" style="ellipse;whiteSpace=wrap;html=1;" vertex="1" parent="1">
          <mxGeometry x="1085.5" y="1620" width="99" height="70" as="geometry" />
        </mxCell>
      </root>
    </mxGraphModel>
  </diagram>
</mxfile>
